<svg width="2048" height="2048" viewBox="0 0 2048 2048" fill="none" xmlns="http://www.w3.org/2000/svg">
<circle cx="1024" cy="1024" r="1024" fill="#F7931E"/>
<path d="M1602.59 983.334C1587.83 983.334 1573.69 977.343 1563.26 966.679C1552.82 956.015 1546.96 941.552 1546.96 926.471C1546.85 805.861 1499.93 690.225 1416.5 604.94C1333.08 519.656 1219.96 471.691 1101.98 471.57C1087.23 471.57 1073.08 465.579 1062.65 454.915C1052.22 444.252 1046.36 429.788 1046.36 414.707C1046.36 399.627 1052.22 385.163 1062.65 374.5C1073.08 363.836 1087.23 357.845 1101.98 357.845C1249.45 358.01 1390.84 417.972 1495.12 524.574C1599.39 631.177 1658.05 775.713 1658.21 926.471C1658.21 941.552 1652.35 956.015 1641.92 966.679C1631.49 977.343 1617.34 983.334 1602.59 983.334ZM1435.72 926.471C1435.72 835.986 1400.56 749.206 1337.97 685.223C1275.38 621.24 1190.5 585.295 1101.98 585.295C1087.23 585.295 1073.08 591.286 1062.65 601.95C1052.22 612.614 1046.36 627.077 1046.36 642.158C1046.36 657.239 1052.22 671.702 1062.65 682.366C1073.08 693.03 1087.23 699.021 1101.98 699.021C1160.99 699.021 1217.58 722.984 1259.31 765.639C1301.03 808.294 1324.47 866.147 1324.47 926.471C1324.47 941.552 1330.33 956.015 1340.77 966.679C1351.2 977.343 1365.34 983.334 1380.1 983.334C1394.85 983.334 1409 977.343 1419.43 966.679C1429.86 956.015 1435.72 941.552 1435.72 926.471ZM1557.14 1618.15L1607.76 1558.5C1639.98 1525.46 1658.07 1480.71 1658.07 1434.05C1658.07 1387.4 1639.98 1342.65 1607.76 1309.61C1606.03 1307.85 1472.21 1202.6 1472.21 1202.6C1440.09 1171.34 1397.42 1153.94 1353.08 1154C1308.74 1154.06 1266.12 1171.59 1234.09 1202.94L1128.07 1294.26C1041.53 1257.64 962.921 1203.91 896.753 1136.15C830.584 1068.39 778.162 987.936 742.496 899.404L831.492 791.365C862.18 758.622 879.344 715.049 879.416 669.702C879.489 624.356 862.464 580.725 831.881 547.88C831.881 547.88 728.813 411.239 727.089 409.476C695.353 376.823 652.325 358.244 607.302 357.755C562.278 357.265 518.873 374.904 486.466 406.86L422.5 463.723C44.601 911.914 858.358 1737.39 1311.24 1722.55C1356.97 1722.82 1402.29 1713.72 1444.52 1695.79C1486.76 1677.86 1525.05 1651.46 1557.14 1618.15Z" fill="white"/>
</svg>
